<?xml version="1.0" standalone="no"?><!DOCTYPE svg PUBLIC "-//W3C//DTD SVG 1.1//EN" "http://www.w3.org/Graphics/SVG/1.1/DTD/svg11.dtd"><svg class="icon" width="16px" height="16.00px" viewBox="0 0 1024 1024" version="1.1" xmlns="http://www.w3.org/2000/svg"><path d="M1024 512c0 282.4-229.6 504-512 504S0 794.4 0 512C0 228.8 229.6 0 512 0s512 228.8 512 512z" fill="#3AD0F9" /><path d="M512 1024c216 0 400-133.6 475.2-322.4-20.8 1.6-43.2 0-59.2-5.6h-0.8c-24.8-8.8-65.6-8.8-90.4 0h-0.8c-24.8 8.8-65.6 8.8-90.4 0h-0.8c-24.8-8.8-65.6-8.8-90.4 0h-0.8c-24.8 8.8-65.6 8.8-90.4 0-24.8-8.8-65.6-8.8-90.4 0H472c-24.8 8.8-65.6 8.8-90.4 0h-0.8c-24.8-8.8-65.6-8.8-90.4 0h-0.8c-24.8 8.8-65.6 8.8-90.4 0h-0.8c-24.8-8.8-65.6-8.8-90.4 0h-0.8c-20 7.2-48.8 8-72.8 4C111.2 889.6 296 1024 512 1024z" fill="#FBD000" /><path d="M965.6 712c-13.6 0-26.4-2.4-40-8-24-8.8-62.4-8.8-85.6 0-27.2 10.4-69.6 10.4-96 0-12.8-4.8-30.4-8.8-47.2-8-14.4 0-28 4-38.4 8-27.2 10.4-69.6 10.4-96 0-11.2-4-26.4-8-41.6-8-16 0-32 3.2-44 8-27.2 10.4-69.6 10.4-96 0-12.8-4-28.8-8-44.8-8-15.2 0-30.4 4-42.4 8-27.2 10.4-69.6 10.4-96 0-12-4.8-29.6-8-45.6-8s-28.8 4-40 8c-27.2 10.4-69.6 10.4-96 0-4-1.6-6.4-6.4-4.8-11.2 1.6-4.8 6.4-7.2 10.4-5.6 11.2 4.8 27.2 8 43.2 8s30.4-4 42.4-8c27.2-10.4 69.6-10.4 96 0 12 4.8 28.8 8 45.6 8 16 0 29.6-4 40-8 27.2-10.4 69.6-10.4 96 0 12.8 4.8 30.4 8 47.2 8 16 0 28-4 38.4-8 27.2-10.4 69.6-10.4 96 0 11.2 4 26.4 8 41.6 8 16 0 32-3.2 44-8 27.2-10.4 69.6-10.4 96 0 23.2 8.8 62.4 8.8 85.6 0 27.2-10.4 69.6-10.4 96 0 24 8.8 46.4 8.8 69.6 0 4-1.6 8.8 0.8 10.4 5.6 1.6 4.8-0.8 9.6-4.8 11.2-12.8 5.6-25.6 8-39.2 8z" fill="#663210" /><path d="M920.8 592c-1.6 0-2.4 0-4-0.8l-30.4-16.8c-14.4-8-38.4-8-52.8 0-9.6 4.8-21.6 9.6-34.4 9.6-12 0-24-4-33.6-9.6-14.4-8-38.4-8-52.8 0-8.8 5.6-20.8 9.6-32.8 9.6s-24.8-4-34.4-9.6c-14.4-8-38.4-8-52.8 0l-30.4 16.8c-4 2.4-8.8 0.8-11.2-3.2-2.4-4-0.8-8.8 3.2-11.2l30.4-16.8c19.2-10.4 48.8-10.4 68 0 7.2 4 16.8 8 26.4 8s19.2-4 26.4-8c19.2-10.4 48.8-10.4 68 0 7.2 4 16.8 8 26.4 8 9.6 0 19.2-4 26.4-8 19.2-10.4 48.8-10.4 68 0l30.4 16.8c4 2.4 5.6 7.2 3.2 11.2-1.6 2.4-4.8 4-7.2 4zM640 416c-1.6 0-2.4 0-4-0.8l-30.4-16.8c-14.4-8-39.2-8-53.6 0-19.2 10.4-49.6 10.4-68.8 0-14.4-8-39.2-8-53.6 0-19.2 10.4-49.6 10.4-68.8 0-14.4-8-39.2-8-53.6 0l-30.4 16.8c-4 2.4-8.8 0.8-11.2-3.2-2.4-4-0.8-8.8 3.2-11.2l30.4-16.8c19.2-10.4 49.6-10.4 68.8 0 14.4 8 39.2 8 53.6 0 19.2-10.4 49.6-10.4 68.8 0 14.4 8 39.2 8 53.6 0 19.2-10.4 49.6-10.4 68.8 0l30.4 16.8c4 2.4 5.6 7.2 3.2 11.2-0.8 2.4-4 4-6.4 4zM570.4 248c-1.6 0-2.4 0-4-0.8L536 230.4c-14.4-8-38.4-8-52.8 0-8.8 5.6-22.4 9.6-35.2 9.6-11.2 0-22.4-4.8-31.2-9.6-14.4-8-38.4-8-52.8 0-10.4 5.6-23.2 9.6-36 9.6-11.2 0-23.2-4.8-32-9.6-14.4-8-38.4-8-52.8 0l-30.4 16.8c-4 2.4-8.8 0.8-11.2-3.2-2.4-4-0.8-8.8 3.2-11.2l30.4-16.8c19.2-10.4 48.8-10.4 68 0 6.4 4 15.2 8 24.8 8 10.4 0 20.8-4 28-8 19.2-10.4 48.8-10.4 68 0 6.4 4 15.2 8 24 8 10.4 0 20.8-4 28.8-8 19.2-10.4 48.8-10.4 68 0l30.4 16.8c4 2.4 5.6 7.2 3.2 11.2-2.4 2.4-4.8 4-8 4zM830.4 304c-1.6 0-3.2-0.8-4-1.6l-24.8-16.8c-11.2-7.2-30.4-7.2-41.6 0-9.6 6.4-24 10.4-32 10.4-9.6 0-20-4.8-27.2-9.6-11.2-7.2-30.4-7.2-41.6 0l-24.8 16.8c-4 2.4-8.8 1.6-11.2-2.4-2.4-4-1.6-8.8 2.4-11.2l24.8-16.8c16.8-11.2 42.4-11.2 59.2 0 4.8 3.2 12 8 18.4 8 8 0 16.8-4 23.2-8 16.8-11.2 42.4-11.2 59.2 0l24.8 16.8c4 2.4 4.8 7.2 2.4 11.2-1.6 1.6-4 3.2-7.2 3.2zM942.4 479.2c-1.6 0-3.2-0.8-4-1.6l-24.8-16c-11.2-7.2-30.4-7.2-41.6 0-16.8 10.4-42.4 10.4-59.2 0-11.2-7.2-30.4-7.2-41.6 0l-24.8 16c-4 2.4-8.8 1.6-11.2-2.4-2.4-4-1.6-8.8 2.4-11.2l24.8-16c16.8-10.4 42.4-10.4 59.2 0 11.2 7.2 30.4 7.2 41.6 0 16.8-10.4 42.4-10.4 59.2 0l24.8 16c4 2.4 4.8 7.2 2.4 11.2-1.6 2.4-4 4-7.2 4zM655.2 136c-1.6 0-3.2-0.8-4-1.6l-24.8-16.8c-11.2-7.2-30.4-7.2-41.6 0-9.6 6.4-24.8 10.4-32.8 10.4-9.6 0-19.2-4.8-26.4-9.6-11.2-7.2-30.4-7.2-41.6 0l-24.8 16.8c-4 2.4-8.8 1.6-11.2-2.4-2.4-4-1.6-8.8 2.4-11.2l24.8-16.8c16.8-11.2 42.4-11.2 59.2 0 4.8 3.2 11.2 8 17.6 8 8 0 17.6-4 24-8 16.8-11.2 42.4-11.2 59.2 0l24.8 16.8c4 2.4 4.8 7.2 2.4 11.2-1.6 1.6-4 3.2-7.2 3.2z" fill="#FFFFFF" /><path d="M570.4 432C512 333.6 392.8 280.8 276 312 160 342.4 81.6 446.4 79.2 560.8c0 0 21.6-22.4 64.8-33.6 43.2-11.2 82.4-4.8 82.4-4.8s29.6-24.8 92-40.8c62.4-16 104-10.4 104-10.4s38.4-26.4 69.6-35.2c32-8 78.4-4 78.4-4z" fill="#FFFFFF" /><path d="M396.8 772.8c-3.2 0-6.4-2.4-8-5.6L257.6 266.4c-0.8-4 1.6-8.8 5.6-9.6 4-0.8 8.8 1.6 9.6 5.6l131.2 500.8c0.8 4-1.6 8.8-5.6 9.6h-1.6z" fill="#663210" /><path d="M570.4 432C512 333.6 392.8 280.8 276 312 160 342.4 81.6 446.4 79.2 560.8c0 0 21.6-22.4 64.8-33.6 43.2-11.2 82.4-4.8 82.4-4.8s29.6-24.8 92-40.8c62.4-16 104-10.4 104-10.4s38.4-26.4 69.6-35.2c32-8 78.4-4 78.4-4z" fill="#FFFFFF" /><path d="M267.2 314.4c-15.2 27.2-56.8 110.4-44 208 2.4 0 3.2 0.8 3.2 0.8s29.6-24.8 92-40.8c62.4-16 104-10.4 104-10.4s2.4-1.6 5.6-4c-14.4-43.2-52.8-121.6-143.2-157.6-2.4 0.8-5.6 1.6-8 2.4-3.2 0-6.4 0.8-9.6 1.6z" fill="#FF4848" /><path d="M79.2 568c-0.8 0-2.4 0-3.2-0.8-3.2-1.6-4.8-4-4.8-7.2 3.2-120 85.6-224.8 202.4-255.2 22.4-5.6 45.6-8.8 68.8-8.8 94.4 0 183.2 50.4 232 130.4 1.6 1.6 1.6 3.2 1.6 5.6 0 4-3.2 8-8 8h-0.8s-12-0.8-27.2-0.8c-19.2 0-36 1.6-48 4.8-29.6 8-66.4 33.6-67.2 33.6-1.6 0.8-4 1.6-5.6 1.6 0 0-6.4-0.8-18.4-0.8-17.6 0-46.4 1.6-81.6 11.2-59.2 14.4-88 38.4-88.8 38.4-1.6 1.6-4 2.4-6.4 1.6 0 0-10.4-1.6-26.4-1.6-18.4 0-36 2.4-52 6.4-40 10.4-60.8 31.2-60.8 31.2-1.6 1.6-3.2 2.4-5.6 2.4z m263.2-256c-21.6 0-44 3.2-64.8 8.8-104 27.2-179.2 117.6-188.8 222.4 11.2-8 29.6-17.6 53.6-24 17.6-4.8 36.8-7.2 56-7.2 12 0 20.8 0.8 25.6 1.6 8.8-6.4 39.2-26.4 92-40 53.6-14.4 92-12 103.2-11.2 8.8-6.4 41.6-27.2 69.6-34.4 13.6-3.2 31.2-5.6 52-5.6h12.8C505.6 354.4 426.4 312 342.4 312z" fill="#663210" /><path d="M473.6 753.6s-23.2 25.6-16.8 52.8 25.6 27.2 25.6 27.2 47.2 25.6 72.8 22.4 12.8-20 12.8-20-31.2-0.8-44-8-16-12-16-12 14.4-12 12-25.6-16.8-22.4-16.8-22.4 0 24.8-12 25.6-20-21.6-17.6-40z" fill="#FF4848" /><path d="M549.6 864c-25.6 0-61.6-18.4-69.6-22.4-9.6-0.8-26.4-8.8-31.2-32.8-7.2-30.4 17.6-59.2 19.2-60 2.4-2.4 6.4-3.2 9.6-2.4 3.2 1.6 4.8 4.8 4.8 8-0.8 10.4 1.6 24 7.2 29.6 0.8 0.8 1.6 1.6 2.4 1.6 1.6 0 4.8-8.8 4.8-18.4 0-3.2 1.6-5.6 4-7.2 2.4-1.6 5.6-1.6 8 0 0.8 0.8 18.4 10.4 20.8 28 1.6 11.2-4 20.8-8.8 26.4 1.6 1.6 4.8 3.2 8.8 5.6 9.6 4.8 32 6.4 40.8 7.2 2.4 0 4.8 0.8 5.6 3.2 0.8 0.8 8 9.6 4 19.2-2.4 7.2-10.4 12-21.6 13.6-4 0.8-6.4 0.8-8.8 0.8zM468 778.4c-3.2 8-5.6 17.6-3.2 27.2 4 20 16.8 20.8 18.4 20.8 1.6 0 2.4 0 4 0.8 0.8 0 44.8 24.8 68 20.8 8-1.6 9.6-3.2 9.6-3.2v-0.8c-9.6-0.8-31.2-2.4-43.2-8.8-13.6-7.2-18.4-13.6-19.2-15.2-2.4-3.2-1.6-8 1.6-10.4 3.2-2.4 10.4-11.2 9.6-18.4 0-2.4-1.6-5.6-3.2-7.2-2.4 9.6-8 17.6-17.6 18.4h-1.6c-4 0-8.8-1.6-14.4-7.2-4-4.8-7.2-10.4-8.8-16.8z" fill="#663210" /><path d="M760 753.6s23.2 25.6 16.8 52.8-25.6 27.2-25.6 27.2-47.2 25.6-72.8 22.4-12.8-20-12.8-20 31.2-0.8 44-8 16-12 16-12-14.4-12-12-25.6 16.8-22.4 16.8-22.4 0 24.8 12 25.6 20-21.6 17.6-40z" fill="#FF4848" /><path d="M684 864c-2.4 0-4.8 0-7.2-0.8-12-1.6-19.2-6.4-21.6-13.6-4-9.6 3.2-18.4 4-19.2 1.6-1.6 4-3.2 5.6-3.2 8 0 31.2-2.4 40.8-7.2 4-2.4 6.4-4 8.8-5.6-4.8-6.4-10.4-16-8.8-26.4 2.4-17.6 20-27.2 20.8-28 2.4-1.6 5.6-1.6 8 0 2.4 1.6 4 4 4 7.2 0 9.6 3.2 17.6 4.8 18.4 0.8 0 1.6-0.8 2.4-1.6 4.8-5.6 8-18.4 7.2-29.6 0-3.2 1.6-6.4 4.8-8 3.2-1.6 7.2-0.8 9.6 2.4 0.8 0.8 25.6 29.6 19.2 60-5.6 24-21.6 32-31.2 32.8-9.6 4-45.6 22.4-71.2 22.4z m-13.6-20.8v0.8s1.6 2.4 9.6 3.2c23.2 4 67.2-20.8 68-20.8 0.8-0.8 2.4-0.8 4-0.8s13.6-0.8 18.4-20.8c2.4-9.6 0-19.2-3.2-27.2-1.6 6.4-4.8 12.8-8.8 16.8-4.8 5.6-10.4 7.2-14.4 7.2h-1.6c-9.6-0.8-14.4-8.8-17.6-18.4-1.6 2.4-2.4 4.8-3.2 7.2-0.8 8 6.4 16.8 9.6 18.4 3.2 2.4 4 7.2 1.6 10.4-0.8 1.6-5.6 7.2-19.2 15.2-12 6.4-33.6 8.8-43.2 8.8z" fill="#663210" /><path d="M534.4 844.8a78.4 47.2 0 1 0 156.8 0 78.4 47.2 0 1 0-156.8 0Z" fill="#FF4848" /><path d="M612.8 868c-36 0-66.4-15.2-75.2-35.2-1.6 4-2.4 8-2.4 12 0 25.6 35.2 47.2 78.4 47.2s78.4-20.8 78.4-47.2c0-4-0.8-8-2.4-12-10.4 20-40.8 35.2-76.8 35.2z" fill="#E8372E" /><path d="M612 904c-47.2 0-84-24.8-84-56s36.8-56 84-56 84 24.8 84 56-36.8 56-84 56z m0-96c-36.8 0-68 18.4-68 40s31.2 40 68 40 68-18.4 68-40-31.2-40-68-40z" fill="#663210" /><path d="M488 904h-2.4c-4-1.6-7.2-5.6-5.6-10.4 8.8-31.2 60-32 62.4-32 4.8 0 8 4 8 8 0 4.8-4 8-8 8-10.4 0-41.6 4-46.4 20-0.8 4-4 6.4-8 6.4z" fill="#663210" /><path d="M528 920c-4 0-7.2-3.2-7.2-6.4-2.4-24 28-37.6 28.8-38.4 4-1.6 8 0 10.4 4 1.6 4 0 8-4 9.6 0 0-21.6 10.4-20 23.2 0 4-3.2 7.2-8 8zM736 904c-3.2 0-6.4-2.4-7.2-6.4-4-16-33.6-20-43.2-20-4 0-8-4-8-8 0-4.8 3.2-8 8-8 2.4 0 49.6 0 58.4 32 0.8 4-1.6 8.8-5.6 10.4H736zM697.6 920h-0.8c-4-0.8-8-4-7.2-8 0.8-11.2-15.2-20.8-21.6-23.2-4-1.6-5.6-6.4-4-9.6 1.6-4 6.4-5.6 10.4-4 1.6 0.8 33.6 14.4 30.4 38.4 0.8 3.2-2.4 6.4-7.2 6.4z" fill="#663210" /><path d="M584 840m-8 0a8 8 0 1 0 16 0 8 8 0 1 0-16 0Z" fill="#663210" /><path d="M653.6 840.8c-2.4 0-4.8-0.8-6.4-3.2-7.2-9.6-32.8-14.4-44.8-11.2-4 0.8-8.8-1.6-9.6-6.4-0.8-4 1.6-8.8 6.4-9.6 14.4-3.2 48 0 60.8 17.6 2.4 3.2 1.6 8.8-1.6 11.2-1.6 0.8-3.2 1.6-4.8 1.6z" fill="#FFFFFF" opacity=".5" /><path d="M648 840m-8 0a8 8 0 1 0 16 0 8 8 0 1 0-16 0Z" fill="#663210" /><path d="M384 442.4c-3.2 0-6.4-2.4-8-5.6-18.4-49.6-84-93.6-84.8-94.4-4-2.4-4.8-7.2-2.4-11.2 2.4-4 8-4.8 11.2-2.4 3.2 1.6 71.2 47.2 91.2 102.4 1.6 4-0.8 8.8-4.8 10.4 0 0.8-0.8 0.8-2.4 0.8z" fill="#FFFFFF" opacity=".5" /><path d="M952.8 341.6c0-3.2-3.2-6.4-8-7.2l-15.2-2.4c-4-0.8-8.8-4.8-8.8-8.8l-2.4-15.2c-0.8-4-4-8-7.2-8s-6.4 3.2-7.2 8l-2.4 15.2c-0.8 4-4.8 8.8-8.8 8.8l-15.2 2.4c-4 0.8-8 4-8 7.2s3.2 6.4 8 7.2l15.2 2.4c4 0.8 8.8 4.8 8.8 8.8l2.4 15.2c0.8 4 4 8 7.2 8s6.4-3.2 7.2-8l2.4-16.8c0.8-4 4.8-8 8.8-8.8l14.4-0.8c5.6-1.6 8.8-4.8 8.8-7.2zM315.2 848.8c0-3.2-3.2-6.4-8-7.2l-15.2-2.4c-4-0.8-8.8-4.8-8.8-8.8l-2.4-15.2c-0.8-4-4-8-7.2-8s-6.4 3.2-7.2 8l-2.4 15.2c-0.8 4-4.8 8.8-8.8 8.8l-15.2 2.4c-4 0.8-8 4-8 7.2s3.2 6.4 8 7.2l15.2 2.4c4 0.8 8.8 4.8 8.8 8.8l2.4 15.2c0.8 4 4 8 7.2 8s6.4-3.2 7.2-8l2.4-16.8c0.8-4 4.8-8 8.8-8.8l14.4-0.8c4.8-0.8 8.8-4 8.8-7.2zM864 808c-17.6 0-32-14.4-32-32s14.4-32 32-32 32 14.4 32 32-14.4 32-32 32z m0-48.8c-9.6 0-16.8 8-16.8 16.8 0 9.6 8 16.8 16.8 16.8 9.6 0 16.8-8 16.8-16.8 0-9.6-7.2-16.8-16.8-16.8zM208 648c-17.6 0-32-14.4-32-32s14.4-32 32-32 32 14.4 32 32-14.4 32-32 32z m0-48.8c-9.6 0-16.8 8-16.8 16.8 0 9.6 8 16.8 16.8 16.8 9.6 0 16.8-8 16.8-16.8 0-9.6-7.2-16.8-16.8-16.8z" fill="#FFFFFF" /><path d="M488 400c-2.4 0-4.8-0.8-6.4-2.4-35.2-40.8-115.2-61.6-116-61.6-4-0.8-7.2-5.6-5.6-9.6 0.8-4 5.6-6.4 9.6-5.6 3.2 0.8 85.6 22.4 124 67.2 3.2 3.2 2.4 8-0.8 11.2-0.8 0-3.2 0.8-4.8 0.8zM128 496h-2.4c-4-0.8-6.4-5.6-5.6-9.6 20-72 80.8-115.2 83.2-116.8 3.2-2.4 8.8-1.6 11.2 1.6 2.4 3.2 1.6 8-1.6 11.2-0.8 0.8-58.4 42.4-77.6 108-0.8 3.2-4 5.6-7.2 5.6z" fill="#0C508E" opacity=".5" /></svg>